<?xml version="1.0" encoding="UTF-8"?>
<svg width="31px" height="31px" viewBox="0 0 31 31" version="1.1" xmlns="http://www.w3.org/2000/svg" xmlns:xlink="http://www.w3.org/1999/xlink">
    <!-- Generator: Sketch 49 (51002) - http://www.bohemiancoding.com/sketch -->
    <title>Group 32</title>
    <desc>Created with Sketch.</desc>
    <defs></defs>
    <g id="Page-1" stroke="none" stroke-width="1" fill="none" fill-rule="evenodd">
        <g id="Group-32">
            <circle id="Oval-2-Copy" fill-opacity="0.7" fill="#FFFFFF" opacity="0.25" cx="15.5" cy="15.5" r="15.5"></circle>
            <path d="M23.5625696,17.9375669 C23.0442948,17.9375669 22.6251391,18.3569327 22.6251391,18.8750394 L22.6251391,21.2993386 L18.6004042,17.2747717 C18.2342099,16.9084094 17.640966,16.9084094 17.2747717,17.2747717 C16.9084094,17.640966 16.9084094,18.2342099 17.2747717,18.6004042 L21.2993386,22.6251391 L18.8750394,22.6251391 C18.3569327,22.6251391 17.9375669,23.0444628 17.9375669,23.5625696 C17.9375669,24.0808443 18.3569327,24.5 18.8750394,24.5 L23.5625696,24.5 C24.0798363,24.5 24.5,24.0806763 24.5,23.5625696 L24.5,18.8750394 C24.5,18.3569327 24.0798363,17.9375669 23.5625696,17.9375669 Z M10.2006614,8.87502887 L12.6249606,8.87502887 C13.1422693,8.87502887 13.5626011,8.45570515 13.5626011,7.93743044 C13.5626011,7.41932372 13.1422693,7 12.6249606,7 L7.93743044,7 C7.41932372,7 7,7.41932372 7,7.93743044 L7,12.6249606 C7,13.1432353 7.41932372,13.5626011 7.93743044,13.5626011 C8.45486516,13.5626011 8.87502887,13.1432353 8.87502887,12.6249606 L8.87502887,10.2006614 L12.8995958,14.2253963 C13.082882,14.4084724 13.3225735,14.5000315 13.5626011,14.5000315 C13.8024606,14.5000315 14.0422782,14.4084724 14.2253963,14.2253963 C14.5915906,13.859202 14.5915906,13.2659581 14.2253963,12.8995958 L10.2006614,8.87502887 Z" id="Fill-1-Copy" fill="#215FEA"></path>
        </g>
    </g>
</svg>