<?xml version="1.0" encoding="UTF-8"?>
<svg width="31px" height="31px" viewBox="0 0 31 31" version="1.1" xmlns="http://www.w3.org/2000/svg" xmlns:xlink="http://www.w3.org/1999/xlink">
    <!-- Generator: Sketch 49 (51002) - http://www.bohemiancoding.com/sketch -->
    <title>Group 30</title>
    <desc>Created with Sketch.</desc>
    <defs></defs>
    <g id="Page-1" stroke="none" stroke-width="1" fill="none" fill-rule="evenodd">
        <g id="Group-30">
            <circle id="Oval-2-Copy-5" fill-opacity="0.7" fill="#FFFFFF" opacity="0.25" cx="15.5" cy="15.5" r="15.5"></circle>
            <g id="Group-24-Copy" transform="translate(7.000000, 7.000000)" fill="#215FEA">
                <path d="M13.4140197,12.0000224 L15.9999244,12.0000224 C16.5517173,12.0000224 17.0000686,11.5527456 17.0000686,10.9999216 C17.0000686,10.4472768 16.5517173,10 15.9999244,10 L10.9999202,10 C10.4472761,10 10,10.4472768 10,10.9999216 L10,15.9999328 C10,16.5527568 10.4472761,17.0000784 10.9999202,17.0000784 C11.5518475,17.0000784 12.0000196,16.5527568 12.0000196,15.9999328 L12.0000196,13.4140244 L16.292867,17.707057 C16.4883711,17.9023374 16.7440406,18 17.0000686,18 C17.2559174,18 17.5117213,17.9023374 17.7070462,17.707057 C18.0976513,17.3164514 18.0976513,16.6836606 17.7070462,16.2928758 L13.4140197,12.0000224 Z" id="Fill-1-Copy-3"></path>
                <path d="M3.48436095,2.08877586 L6.07026569,2.08877586 C6.62205857,2.08877586 7.07040989,1.6414991 7.07040989,1.08867506 C7.07040989,0.536030216 6.62205857,0.0887534567 6.07026569,0.0887534567 L1.07026149,0.0887534567 C0.517617424,0.0887534567 0.0703412906,0.536030216 0.0703412906,1.08867506 L0.0703412906,6.08868626 C0.0703412906,6.6415103 0.517617424,7.08883186 1.07026149,7.08883186 C1.62218877,7.08883186 2.07036089,6.6415103 2.07036089,6.08868626 L2.07036089,3.50277789 L6.36320826,7.79581048 C6.55871237,7.99109086 6.81438193,8.08875346 7.07040989,8.08875346 C7.32625865,8.08875346 7.58206261,7.99109086 7.77738752,7.79581048 C8.16799255,7.4052049 8.16799255,6.77241401 7.77738752,6.38162924 L3.48436095,2.08877586 Z" id="Fill-1-Copy-6" transform="translate(4.070341, 4.088753) rotate(-180.000000) translate(-4.070341, -4.088753) "></path>
            </g>
        </g>
    </g>
</svg>