<?xml version="1.0" encoding="UTF-8"?>
<svg width="150px" height="28px" viewBox="0 0 150 28" version="1.1" xmlns="http://www.w3.org/2000/svg" xmlns:xlink="http://www.w3.org/1999/xlink">
    <!-- Generator: Sketch 47 (45396) - http://www.bohemiancoding.com/sketch -->
    <title>Group 4</title>
    <desc>Created with Sketch.</desc>
    <defs>
        <polygon id="path-1" points="0 25.5483871 50.3249727 25.5483871 50.3249727 0.191612903 0 0.191612903"></polygon>
        <polygon id="path-3" points="17.401388 3.4526979 17.401388 0.345088359 0.219990985 0.345088359 0.219990985 3.4526979 17.401388 3.4526979"></polygon>
        <polygon id="path-5" points="17.401388 21.085306 17.401388 0.228195231 0.219990985 0.228195231 0.219990985 21.085306 17.401388 21.085306"></polygon>
    </defs>
    <g id="Page-1" stroke="none" stroke-width="1" fill="none" fill-rule="evenodd">
        <g id="京东运力实时监控大屏-copy" transform="translate(-30.000000, -108.000000)">
            <g id="Group-4" transform="translate(30.000000, 108.000000)">
                <g id="logo">
                    <g id="Group-2">
                        <g transform="translate(0.000000, 0.400000)">
                            <g id="Page-1" transform="translate(0.000000, 1.200000)">
                                <polygon id="Fill-1" fill="#FFFFFF" points="15.0084931 5.10967742 15.0084931 6.10046277 7.47650853 6.10046277 7.47650853 12.0973523 15.12 12.0973523 15.12 13.0881377 7.47650853 13.0881377 7.47650853 19.4485106 15.12 19.4485106 15.12 20.4387097 5.04 20.4387097 5.04 5.11026368"></polygon>
                                <polygon id="Fill-2" fill="#FFFFFF" points="19.7321316 13.0878565 19.7321316 20.4387097 17.28 20.4387097 17.28 5.10967742 19.7321316 5.10967742 19.7321316 12.0976196 27.0678684 12.0976196 27.0678684 5.10967742 29.52 5.10967742 29.52 20.4387097 27.0678684 20.4387097 27.0678684 13.0878565"></polygon>
                                <g id="Group-7">
                                    <path d="M33.5561482,19.3493613 L36.2221936,19.3493613 C37.0675391,19.3493613 37.8630573,19.2076839 38.6087482,18.924329 C39.3538664,18.6409742 40.0044845,18.2211677 40.56003,17.6654903 C41.1150027,17.1098129 41.5525664,16.4229097 41.8710027,15.6059419 C42.1900118,14.7878129 42.3498027,13.8454258 42.3498027,12.7770387 C42.3498027,11.8474258 42.1991755,10.9915548 41.8979209,10.2105871 C41.5972391,9.42961935 41.1762845,8.7578129 40.6350573,8.1945871 C40.09383,7.63136129 39.4489391,7.1918129 38.6998118,6.87594194 C37.9512573,6.55949032 37.1322573,6.40155484 36.2439573,6.40155484 L33.5561482,6.40155484 L33.5561482,19.3493613 Z M31.04073,5.27916774 L36.01773,5.27916774 C37.5589391,5.27916774 38.8825118,5.42432903 39.9901664,5.71523226 C41.0972482,6.00555484 42.0199118,6.47065161 42.7581573,7.10994194 C43.6035027,7.83690968 44.2398027,8.6742 44.6659118,9.62239355 C45.0925936,10.5705871 45.3056482,11.6076194 45.3056482,12.734071 C45.3056482,13.8018774 45.1137845,14.8046516 44.73063,15.7418129 C44.3474755,16.6789742 43.7884936,17.4982645 43.0536845,18.1991032 C42.3188755,18.9005226 41.4122482,19.4527161 40.3338027,19.8562645 C39.2553573,20.2592323 38.02113,20.4607161 36.6305482,20.4607161 L31.04073,20.4607161 L31.04073,5.27916774 Z" id="Fill-3" fill="#FFFFFF"></path>
                                    <mask id="mask-2" fill="white">
                                        <use xlink:href="#path-1"></use>
                                    </mask>
                                    <g id="Clip-6"></g>
                                    <path d="M1.55552727,23.9713548 L48.7688727,23.9713548 L48.7688727,1.76574194 L1.55552727,1.76574194 L1.55552727,23.9713548 Z M0,25.5483871 L50.3249727,25.5483871 L50.3249727,0.191612903 L0,0.191612903 L0,25.5483871 Z" id="Fill-5" fill="#FFFFFF" mask="url(#mask-2)"></path>
                                </g>
                            </g>
                            <g id="Group-25-Copy" transform="translate(56.400000, 0.000000)">
                                <polygon id="Fill-6" fill="#FFFFFF" points="59.04 12.4092166 59.04 20.4387097 54.4240478 20.4387097 54.4240478 14.2276157 39.1759522 14.2276157 39.1759522 20.4387097 34.56 20.4387097 34.56 12.4092166"></polygon>
                                <polygon id="Fill-8" fill="#FFFFFF" points="61.2 25.5483871 53.2506441 25.5483871 47.4494965 21.9851099 46.7987233 21.5920718 46.1559752 21.9851099 40.3573812 25.5483871 32.4 25.5483871 43.721412 18.6278489 44.4779724 18.1650429 44.4779724 15.3290323 49.1161911 15.3290323 49.1161911 18.1650429 49.6505985 18.4912353"></polygon>
                                <polygon id="Fill-10" fill="#FFFFFF" points="40.32 0 38.7132446 2.83686968 38.7132446 10.9493088 34.309583 10.9493088 34.309583 6.2037803 32.4 6.2037803 34.309583 2.83686968 34.309583 2.83139028 35.9163385 0"></polygon>
                                <polygon id="Fill-12" fill="#FFFFFF" points="61.2 6.88100104 59.9834181 10.9493088 46.8611688 10.9493088 46.8611688 6.09368106 40.32 7.77697996 40.32 5.9908758 46.8611688 4.30757689 46.8611688 0 51.4673446 0 51.4673446 3.1211091 59.9834181 0.930003437 59.9834181 2.71574174 51.4673446 4.9068474 51.4673446 9.16320459 55.9091567 9.16320459 56.5938242 6.88100104"></polygon>
                                <g id="Group-16" transform="translate(75.600000, 0.000000)">
                                    <mask id="mask-4" fill="white">
                                        <use xlink:href="#path-3"></use>
                                    </mask>
                                    <g id="Clip-15"></g>
                                    <polygon id="Fill-14" fill="#FFFFFF" mask="url(#mask-4)" points="17.4014602 1.64468668 17.4014602 3.4526979 0.219990985 3.4526979 0.219990985 1.64468668 6.74894207 1.64468668 6.28707656 0.345051332 10.8725091 0.345051332 11.3343746 1.64468668"></polygon>
                                </g>
                                <g id="Group-19" transform="translate(75.600000, 4.379724)">
                                    <mask id="mask-6" fill="white">
                                        <use xlink:href="#path-5"></use>
                                    </mask>
                                    <g id="Clip-18"></g>
                                    <polygon id="Fill-17" fill="#FFFFFF" mask="url(#mask-6)" points="17.4014602 2.59049537 17.4014602 21.085306 12.2862726 21.085306 12.2862726 19.2832191 12.8160276 19.2832191 12.8160276 4.39258233 4.80542355 4.39258233 4.80542355 21.085306 0.219990985 21.085306 0.219990985 2.59049537 3.14935222 2.59049537 2.33828894 0.228195231 6.92372151 0.228195231 7.73478479 2.59049537 9.8866664 2.59049537 10.6980908 0.228195231 15.2835234 0.228195231 14.472099 2.59049537"></polygon>
                                </g>
                                <path d="M83.1803844,21.5252028 L86.7396156,21.5252028 L86.7396156,17.6832226 L83.1803844,17.6832226 L83.1803844,21.5252028 Z M88.56,13.3723052 L88.56,11.5449899 L87.3346909,11.5449899 L87.3346909,9.48940092 L82.5853091,9.48940092 L82.5853091,11.5449899 L81.36,11.5449899 L81.36,13.3723052 L82.5853091,13.3723052 L82.5853091,15.8499 L81.36,15.8499 L81.36,23.3585253 L88.56,23.3585253 L88.56,15.8499 L87.3346909,15.8499 L87.3346909,13.3723052 L88.56,13.3723052 Z" id="Fill-20" fill="#FFFFFF"></path>
                                <path d="M69.517139,22.3047425 L70.8887973,22.3047425 L70.8887973,3.24364457 L69.517139,3.24364457 L69.517139,22.3047425 Z M64.8,24.0884793 L75.6,24.0884793 L75.6,1.45990783 L64.8,1.45990783 L64.8,24.0884793 Z" id="Fill-22" fill="#FFFFFF"></path>
                                <polygon id="Fill-23" fill="#FFFFFF" points="28.8 13.6059008 28.8 25.5483871 19.8209794 25.5483871 19.8209794 23.7791703 24.1770586 23.7791703 24.1770586 15.3809338 21.5987258 15.3809338 18.5489242 25.5483871 13.9201578 25.5483871 16.9699593 15.3809338 13.9088716 15.3809338 10.6657498 25.5483871 6.04280838 25.5483871 9.28593027 15.3809338 6.16222284 15.3809338 4.62330544 20.1273206 0 20.1273206 2.49896594 12.4092166 7.12190731 12.4092166 6.73599474 13.6059008"></polygon>
                                <path d="M6.00388914,4.23508358 L23.515392,4.23508358 L23.515392,1.75026631 L6.00388914,1.75026631 L6.00388914,4.23508358 Z M6.00388914,8.46405489 L23.515392,8.46405489 L23.515392,5.98499035 L6.00388914,5.98499035 L6.00388914,8.46405489 Z M1.44,10.2193548 L28.08,10.2193548 L28.08,0 L1.44,0 L1.44,10.2193548 Z" id="Fill-24" fill="#FFFFFF"></path>
                            </g>
                        </g>
                    </g>
                </g>
            </g>
        </g>
    </g>
</svg>