<?xml version="1.0" encoding="UTF-8"?>
<svg width="65px" height="12px" viewBox="0 0 65 12" version="1.1" xmlns="http://www.w3.org/2000/svg" xmlns:xlink="http://www.w3.org/1999/xlink">
    <!-- Generator: Sketch 49 (51002) - http://www.bohemiancoding.com/sketch -->
    <title>Group 17</title>
    <desc>Created with Sketch.</desc>
    <defs></defs>
    <g id="Page-1" stroke="none" stroke-width="1" fill="none" fill-rule="evenodd">
        <g id="Group-17" transform="translate(1.000000, 0.000000)">
            <path d="M16.996,0.544 L20.884,0.544 L20.884,3.052 C21.904,2.26 22.6,1.288 22.96,0.136 L24.052,0.352 C23.968,0.604 23.872,0.856 23.776,1.096 L26.608,1.096 L26.608,1.924 C26.236,2.872 25.696,3.712 24.976,4.456 C25.72,5.032 26.62,5.488 27.652,5.824 L27.016,6.76 C25.888,6.376 24.94,5.86 24.148,5.188 C23.356,5.812 22.408,6.352 21.328,6.808 L20.632,5.896 C21.688,5.476 22.6,4.984 23.368,4.42 C23.008,4.012 22.708,3.592 22.444,3.136 C22.156,3.436 21.844,3.712 21.52,3.976 L20.884,3.148 L20.884,4.576 L19.732,4.576 L19.732,6.244 L20.848,6.244 L20.848,7.324 L19.732,7.324 L19.732,9.196 C20.212,9.04 20.68,8.884 21.112,8.728 L21.112,9.88 C19.852,10.336 18.4,10.768 16.744,11.164 L16.432,10.06 L16.996,9.94 L16.996,5.728 L18.004,5.728 L18.004,9.688 C18.232,9.628 18.46,9.568 18.676,9.508 L18.676,4.576 L16.996,4.576 L16.996,0.544 Z M23.104,2.296 C23.404,2.824 23.764,3.304 24.172,3.736 C24.676,3.232 25.084,2.692 25.396,2.104 L23.248,2.104 C23.2,2.176 23.152,2.236 23.104,2.296 Z M19.804,3.52 L19.804,1.6 L18.088,1.6 L18.088,3.52 L19.804,3.52 Z M26.572,6.628 L26.572,11.2 L25.48,11.2 L25.48,10.744 L22.852,10.744 L22.852,11.2 L21.772,11.2 L21.772,6.628 L26.572,6.628 Z M22.852,9.712 L25.48,9.712 L25.48,7.66 L22.852,7.66 L22.852,9.712 Z M32.248,0.652 L38.428,0.652 L38.428,5.788 L36.856,5.788 L36.856,9.664 C36.856,9.856 36.964,9.964 37.18,9.964 L37.948,9.964 C38.128,9.964 38.26,9.868 38.332,9.7 C38.44,9.508 38.512,8.932 38.548,7.972 L39.568,8.284 C39.472,9.592 39.316,10.372 39.1,10.624 C38.884,10.864 38.572,10.984 38.152,10.984 L36.844,10.984 C36.124,10.984 35.776,10.612 35.776,9.892 L35.776,5.788 L34.84,5.788 C34.66,8.296 33.568,10.108 31.552,11.236 L30.928,10.24 C32.644,9.364 33.58,7.876 33.748,5.788 L32.248,5.788 L32.248,0.652 Z M37.324,4.732 L37.324,1.72 L33.352,1.72 L33.352,4.732 L37.324,4.732 Z M29.464,0.52 C30.304,1.54 30.964,2.44 31.432,3.208 L30.532,3.844 C30.04,3.016 29.38,2.104 28.54,1.096 L29.464,0.52 Z M30.508,5.488 L31.504,5.884 C30.904,7.684 30.22,9.364 29.476,10.948 L28.444,10.504 C29.236,8.872 29.932,7.192 30.508,5.488 Z M41.716,4.912 C41.404,5.32 41.08,5.728 40.72,6.136 L40.348,4.912 C41.452,3.52 42.28,1.888 42.82,0.04 L43.888,0.544 C43.612,1.432 43.264,2.296 42.832,3.124 L42.832,11.26 L41.716,11.26 L41.716,4.912 Z M43.672,1.612 L47.188,1.612 C47.032,1.204 46.852,0.808 46.648,0.424 L47.74,0.124 C47.992,0.664 48.184,1.156 48.316,1.612 L51.556,1.612 L51.556,2.68 L43.672,2.68 L43.672,1.612 Z M44.764,3.412 L50.536,3.412 L50.536,4.432 L44.764,4.432 L44.764,3.412 Z M44.764,5.104 L50.536,5.104 L50.536,6.136 L44.764,6.136 L44.764,5.104 Z M50.788,6.892 L50.788,11.236 L49.684,11.236 L49.684,10.612 L45.604,10.612 L45.604,11.236 L44.5,11.236 L44.5,6.892 L50.788,6.892 Z M45.604,9.544 L49.684,9.544 L49.684,7.948 L45.604,7.948 L45.604,9.544 Z M54.208,0.976 L56.86,0.976 C57.004,0.676 57.112,0.376 57.196,0.064 L58.384,0.22 C58.312,0.484 58.204,0.736 58.084,0.976 L61.888,0.976 L61.888,7.036 L54.208,7.036 L54.208,0.976 Z M60.784,6.064 L60.784,5.284 L55.312,5.284 L55.312,6.064 L60.784,6.064 Z M55.312,4.372 L60.784,4.372 L60.784,3.616 L55.312,3.616 L55.312,4.372 Z M55.312,2.716 L60.784,2.716 L60.784,1.948 L55.312,1.948 L55.312,2.716 Z M53.56,7.732 L54.64,7.948 C54.352,9.064 53.968,10.024 53.464,10.84 L52.504,10.228 C53.008,9.46 53.356,8.62 53.56,7.732 Z M59.536,11.056 L56.488,11.056 C55.696,11.056 55.3,10.672 55.3,9.904 L55.3,7.708 L56.452,7.708 L56.452,9.664 C56.452,9.904 56.572,10.036 56.812,10.036 L59.32,10.036 C59.548,10.036 59.704,9.976 59.788,9.856 C59.92,9.712 60.004,9.292 60.04,8.584 L61.132,8.932 C61.036,9.952 60.856,10.564 60.604,10.78 C60.364,10.96 60.016,11.056 59.536,11.056 Z M58.06,7.24 C58.648,7.84 59.104,8.356 59.416,8.812 L58.564,9.412 C58.228,8.908 57.784,8.356 57.22,7.756 L58.06,7.24 Z M61.9,7.492 C62.62,8.428 63.16,9.256 63.544,9.952 L62.644,10.588 C62.236,9.82 61.696,8.98 61.012,8.044 L61.9,7.492 Z" id="路况信息-copy" fill="#4C4C4C"></path>
            <g id="Group-14" transform="translate(0.000000, 1.000000)" stroke="#69A4FF" stroke-linecap="round" stroke-linejoin="round">
                <path d="M3.06481934,5.10888672 L2.98718262,8.63317871" id="Line"></path>
                <polygon id="Path-3" fill="#AACCFA" points="0.1796875 0.109375 0.1796875 4.68685846 6.91264308 4.68685846 11.3704595 0.229042066"></polygon>
                <path d="M0.5,10.5 L4.93334961,7.57910156" id="Line-2"></path>
            </g>
        </g>
    </g>
</svg>